<svg width="2681" height="1348" viewBox="0 0 2681 1348" fill="none" xmlns="http://www.w3.org/2000/svg">
<path d="M992 514.5C992 787.053 771.053 1008 498.5 1008C225.947 1008 5 787.053 5 514.5C5 241.947 225.947 21 498.5 21C771.053 21 992 241.947 992 514.5Z" fill="#F9D703"/>
<path d="M263.088 688V638.511H351.89V409.107H347.728L277.426 492.358L239.5 460.445L319.515 365.168H411.554V638.511H485.556V688H263.088Z" fill="black"/>
<path d="M637.078 693.55C616.42 693.55 598.536 689.85 583.427 682.45C568.319 674.741 555.831 663.795 545.964 649.612C536.097 635.428 528.697 618.007 523.763 597.348C519.138 576.689 516.826 553.101 516.826 526.584C516.826 500.375 519.138 476.941 523.763 456.283C528.697 435.315 536.097 417.74 545.964 403.556C555.831 389.373 568.319 378.581 583.427 371.181C598.536 363.472 616.42 359.618 637.078 359.618C678.088 359.618 708.305 374.264 727.73 403.556C747.464 432.849 757.331 473.858 757.331 526.584C757.331 579.31 747.464 620.319 727.73 649.612C708.305 678.904 678.088 693.55 637.078 693.55ZM637.078 642.212C657.737 642.212 672.075 634.503 680.092 619.086C688.417 603.361 692.58 582.239 692.58 555.722V497.446C692.58 470.929 688.417 449.962 680.092 434.545C672.075 418.819 657.737 410.957 637.078 410.957C616.42 410.957 601.928 418.819 593.602 434.545C585.586 449.962 581.577 470.929 581.577 497.446V555.722C581.577 582.239 585.586 603.361 593.602 619.086C601.928 634.503 616.42 642.212 637.078 642.212Z" fill="black"/>
<path d="M1093.08 453.045H1110.2L934.906 762.464C931.206 769.248 927.506 773.873 923.806 776.339C920.414 779.115 915.635 780.502 909.468 780.502H874.317L877.092 766.627H916.868L959.419 690.775L918.256 453.045H933.518L970.057 670.425H971.907L1093.08 453.045Z" fill="black"/>
<path d="M1206.88 693.55C1179.74 693.55 1158.93 685.842 1144.44 670.425C1130.25 655.008 1123.16 631.42 1123.16 599.661C1123.16 578.694 1125.94 558.96 1131.49 540.459C1137.35 521.959 1145.36 505.925 1155.54 492.358C1166.02 478.483 1178.35 467.537 1192.54 459.52C1207.03 451.503 1222.91 447.495 1240.18 447.495C1261.76 447.495 1279.49 452.582 1293.37 462.758C1307.24 472.933 1314.18 487.271 1314.18 505.771C1314.18 514.713 1311.87 523.501 1307.24 532.134C1302.92 540.768 1294.44 548.63 1281.8 555.722C1269.47 562.814 1251.89 568.827 1229.08 573.76C1206.26 578.385 1176.66 581.006 1140.27 581.623C1139.97 584.089 1139.66 587.481 1139.35 591.798C1139.04 595.806 1138.89 599.044 1138.89 601.511C1138.89 628.028 1144.75 647.608 1156.46 660.249C1168.18 672.891 1185.14 679.212 1207.34 679.212C1225.53 679.212 1241.72 674.587 1255.9 665.337C1270.09 655.779 1281.8 642.674 1291.05 626.024L1303.54 633.886C1290.9 654.854 1276.25 670.116 1259.6 679.675C1243.26 688.925 1225.68 693.55 1206.88 693.55ZM1238.33 461.37C1226.3 461.37 1215.05 463.837 1204.56 468.77C1194.39 473.395 1185.14 480.025 1176.81 488.658C1168.8 497.292 1161.86 507.621 1156 519.646C1150.45 531.672 1146.44 544.776 1143.97 558.96L1142.12 568.21C1174.81 567.593 1201.17 565.435 1221.21 561.735C1241.56 558.035 1257.29 553.41 1268.39 547.86C1279.8 542.001 1287.51 535.526 1291.52 528.434C1295.52 521.342 1297.53 513.788 1297.53 505.771C1297.53 491.896 1292.59 481.104 1282.73 473.395C1273.17 465.379 1258.37 461.37 1238.33 461.37Z" fill="black"/>
<path d="M1524.09 688C1513.61 688 1508.37 683.529 1508.37 674.587C1508.37 673.046 1508.37 671.658 1508.37 670.425C1508.68 668.883 1508.98 667.341 1509.29 665.8L1515.31 636.661H1513.92C1504.05 654.545 1492.64 668.575 1479.69 678.75C1467.05 688.617 1451.17 693.55 1432.05 693.55C1420.03 693.55 1409.39 691.392 1400.14 687.075C1390.89 682.758 1383.03 676.746 1376.55 669.037C1370.39 661.02 1365.61 651.77 1362.21 641.287C1358.82 630.495 1357.13 618.624 1357.13 605.673C1357.13 585.323 1359.59 565.743 1364.53 546.935C1369.46 527.817 1376.71 510.859 1386.27 496.058C1396.13 481.258 1408.31 469.541 1422.8 460.908C1437.3 451.966 1453.95 447.495 1472.75 447.495C1491.25 447.495 1506.36 451.812 1518.08 460.445C1530.11 468.77 1538.28 480.333 1542.59 495.133H1543.98L1552.31 453.045H1568.03L1524.09 673.662H1562.02L1559.24 688H1524.09ZM1434.37 679.212C1444.23 679.212 1453.02 677.671 1460.73 674.587C1468.75 671.504 1476.76 666.57 1484.78 659.787C1493.72 652.078 1501.74 642.52 1508.83 631.111C1516.23 619.394 1521.47 605.827 1524.56 590.41L1537.04 528.897C1538.59 521.188 1538.59 513.48 1537.04 505.771C1535.5 497.754 1532.11 490.508 1526.87 484.033C1521.93 477.558 1515 472.316 1506.06 468.308C1497.11 463.991 1486.17 461.833 1473.22 461.833C1448.24 461.833 1427.89 470.312 1412.17 487.271C1396.44 503.921 1385.65 526.738 1379.79 555.722L1376.09 576.073C1375.16 581.006 1374.39 585.94 1373.78 590.873C1373.47 595.498 1373.31 600.894 1373.31 607.061C1373.31 616.928 1374.39 626.332 1376.55 635.274C1379.02 643.907 1382.72 651.462 1387.65 657.937C1392.89 664.412 1399.22 669.654 1406.62 673.662C1414.32 677.362 1423.57 679.212 1434.37 679.212Z" fill="black"/>
<path d="M1617.19 688L1664.37 453.045H1680.09L1669.45 504.384H1671.3C1675.01 497.292 1679.17 490.662 1683.79 484.496C1688.42 478.021 1693.81 472.47 1699.98 467.845C1706.15 463.22 1713.24 459.674 1721.26 457.208C1729.27 454.433 1738.52 453.045 1749.01 453.045H1763.34L1760.11 468.308H1746.23C1734.82 468.308 1724.34 470.466 1714.78 474.783C1705.53 479.1 1697.21 485.112 1689.81 492.821C1682.41 500.221 1676.08 509.009 1670.84 519.184C1665.91 529.051 1662.36 539.689 1660.2 551.097L1632.92 688H1617.19Z" fill="black"/>
<path d="M1846.48 693.55C1827.36 693.55 1810.56 689.696 1796.07 681.987C1781.58 674.279 1769.4 663.179 1759.53 648.687L1772.02 639.437C1789.59 666.262 1814.41 679.675 1846.48 679.675C1866.83 679.675 1883.17 674.896 1895.51 665.337C1907.84 655.47 1914.01 641.287 1914.01 622.786C1914.01 609.528 1910.31 599.815 1902.91 593.648C1895.51 587.173 1884.41 582.085 1869.61 578.385L1847.41 572.835C1839.39 570.985 1831.83 568.672 1824.74 565.897C1817.96 562.814 1812.1 559.114 1807.17 554.797C1802.23 550.172 1798.38 544.622 1795.6 538.147C1792.83 531.672 1791.44 523.809 1791.44 514.559C1791.44 504.075 1793.45 494.671 1797.45 486.346C1801.46 478.021 1807.01 471.083 1814.1 465.533C1821.2 459.674 1829.52 455.203 1839.08 452.12C1848.95 449.037 1859.74 447.495 1871.46 447.495C1890.88 447.495 1906.45 451.041 1918.17 458.133C1929.89 465.224 1939.45 473.704 1946.85 483.571L1935.28 493.746C1932.2 489.429 1928.65 485.267 1924.64 481.258C1920.94 477.25 1916.47 473.858 1911.23 471.083C1906.3 467.999 1900.44 465.687 1893.66 464.145C1886.87 462.295 1879.16 461.37 1870.53 461.37C1851.11 461.37 1835.69 465.995 1824.28 475.245C1812.87 484.187 1807.17 496.983 1807.17 513.634C1807.17 526.584 1810.71 536.451 1817.81 543.234C1825.21 550.018 1836.31 555.106 1851.11 558.497L1872.84 564.047C1881.17 566.206 1888.72 568.672 1895.51 571.448C1902.6 574.223 1908.61 577.923 1913.54 582.548C1918.79 586.865 1922.79 592.26 1925.57 598.736C1928.34 604.902 1929.73 612.611 1929.73 621.861C1929.73 633.578 1927.57 643.907 1923.26 652.849C1918.94 661.791 1913.08 669.345 1905.68 675.512C1898.28 681.371 1889.49 685.842 1879.32 688.925C1869.14 692.008 1858.2 693.55 1846.48 693.55Z" fill="black"/>
<path d="M2177.38 693.55C2165.05 693.55 2153.95 691.392 2144.08 687.075C2134.53 682.758 2126.35 676.746 2119.57 669.037C2112.79 661.329 2107.55 652.233 2103.85 641.749C2100.45 630.957 2098.76 619.24 2098.76 606.598C2098.76 585.323 2101.22 565.127 2106.16 546.009C2111.4 526.584 2118.95 509.625 2128.82 495.133C2139 480.641 2151.33 469.079 2165.82 460.445C2180.31 451.812 2197.12 447.495 2216.24 447.495C2228.57 447.495 2239.52 449.653 2249.07 453.97C2258.94 458.287 2267.27 464.299 2274.05 472.008C2280.83 479.716 2285.92 488.967 2289.31 499.758C2293.01 510.242 2294.86 521.805 2294.86 534.447C2294.86 555.722 2292.24 576.073 2287 595.498C2282.07 614.615 2274.51 631.42 2264.34 645.912C2254.47 660.404 2242.14 671.966 2227.34 680.6C2212.84 689.233 2196.19 693.55 2177.38 693.55ZM2179.23 679.212C2203.29 679.212 2223.33 671.041 2239.36 654.699C2255.39 638.049 2266.49 614.769 2272.66 584.86L2276.82 562.66C2277.75 557.726 2278.37 552.793 2278.67 547.86C2278.98 542.926 2279.14 537.684 2279.14 532.134C2279.14 522.576 2277.75 513.48 2274.97 504.846C2272.51 496.213 2268.65 488.812 2263.41 482.646C2258.17 476.17 2251.39 471.083 2243.06 467.383C2235.04 463.683 2225.49 461.833 2214.39 461.833C2190.34 461.833 2170.29 470.158 2154.26 486.808C2138.23 503.15 2127.13 526.276 2120.96 556.185L2116.8 578.385C2115.87 583.319 2115.25 588.252 2114.95 593.186C2114.64 598.119 2114.48 603.361 2114.48 608.911C2114.48 618.778 2115.72 628.028 2118.18 636.661C2120.96 644.987 2124.97 652.387 2130.21 658.862C2135.45 665.029 2142.08 669.962 2150.1 673.662C2158.42 677.362 2168.13 679.212 2179.23 679.212Z" fill="black"/>
<path d="M2352.33 756.452C2350.79 764.777 2348.17 770.789 2344.47 774.489C2340.77 778.498 2334.29 780.502 2325.04 780.502H2288.04L2290.82 766.164H2334.75L2393.95 467.383H2349.55L2352.33 453.045H2396.73L2412.92 369.793C2414.46 361.468 2417.08 355.455 2420.78 351.755C2424.79 347.747 2431.42 345.743 2440.67 345.743H2482.29L2479.52 360.08H2430.49L2412.46 453.045H2460.56L2457.78 467.383H2409.68L2352.33 756.452Z" fill="black"/>
<path d="M547.119 1320H629.791V889.365H537.864L480.487 1017.69L448.406 1109.62H442.236L410.154 1017.69L351.543 889.365H259V1320H341.672V1095.43L336.736 1023.24H346.608L373.137 1091.73L444.087 1247.82L515.654 1091.73L542.183 1023.24H552.054L547.119 1095.43V1320Z" fill="black"/>
<path d="M981.012 1320V1242.88H802.712V1140.47H953.866V1063.96H802.712V966.484H981.012V889.365H714.487V1320H981.012Z" fill="black"/>
<path d="M1320.85 966.484V889.365H1026.56V966.484H1129.59V1320H1217.82V966.484H1320.85Z" fill="black"/>
<path d="M1644.96 1320V1242.88H1466.66V1140.47H1617.82V1063.96H1466.66V966.484H1644.96V889.365H1378.44V1320H1644.96Z" fill="black"/>
<path d="M1873.13 1327.4C1976.16 1327.4 2044.03 1265.71 2044.03 1104.68C2044.03 943.657 1976.16 881.961 1873.13 881.961C1770.1 881.961 1702.23 943.657 1702.23 1104.68C1702.23 1265.71 1770.1 1327.4 1873.13 1327.4ZM1873.13 1249.67C1824.39 1249.67 1796.01 1219.44 1796.01 1160.83V1048.54C1796.01 989.929 1824.39 959.698 1873.13 959.698C1921.87 959.698 1950.25 989.929 1950.25 1048.54V1160.83C1950.25 1219.44 1921.87 1249.67 1873.13 1249.67Z" fill="black"/>
<path d="M2201.11 1157.12H2259.72L2326.35 1320H2421.98L2346.71 1149.1C2392.98 1131.83 2417.66 1086.17 2417.66 1023.24C2417.66 941.806 2376.32 889.365 2299.2 889.365H2112.88V1320H2201.11V1157.12ZM2201.11 1083.71V966.484H2288.1C2311.54 966.484 2326.35 976.972 2326.35 1006.59V1043.6C2326.35 1073.22 2311.54 1083.71 2288.1 1083.71H2201.11Z" fill="black"/>
</svg>
