<svg width="1240" height="1240" viewBox="0 0 1240 1240" fill="none" xmlns="http://www.w3.org/2000/svg">
<path d="M1206 620.5C1206 943.863 943.863 1206 620.5 1206C297.137 1206 35 943.863 35 620.5C35 297.137 297.137 35 620.5 35C943.863 35 1206 297.137 1206 620.5Z" fill="#F9D703"/>
<path d="M341.795 812.561V753.846H447.152V481.675H442.213L358.806 580.447L313.81 542.584L408.74 429.545H517.938V753.846H605.735V812.561H341.795Z" fill="black"/>
<path d="M785.505 819.145C760.995 819.145 739.778 814.756 721.852 805.976C703.927 796.83 689.111 783.844 677.405 767.016C665.699 750.188 656.919 729.519 651.066 705.009C645.579 680.499 642.835 652.514 642.835 621.053C642.835 589.958 645.579 562.156 651.066 537.646C656.919 512.77 665.699 491.918 677.405 475.09C689.111 458.262 703.927 445.458 721.852 436.679C739.778 427.533 760.995 422.96 785.505 422.96C834.16 422.96 870.01 440.337 893.057 475.09C916.47 509.843 928.176 558.497 928.176 621.053C928.176 683.609 916.47 732.263 893.057 767.016C870.01 801.769 834.16 819.145 785.505 819.145ZM785.505 758.236C810.015 758.236 827.026 749.091 836.538 730.799C846.415 712.143 851.353 687.084 851.353 655.623V586.483C851.353 555.022 846.415 530.146 836.538 511.855C827.026 493.198 810.015 483.87 785.505 483.87C760.995 483.87 743.802 493.198 733.925 511.855C724.413 530.146 719.657 555.022 719.657 586.483V655.623C719.657 687.084 724.413 712.143 733.925 730.799C743.802 749.091 760.995 758.236 785.505 758.236Z" fill="black"/>
</svg>
